<svg width="137" height="138" viewBox="0 0 137 138" fill="none" xmlns="http://www.w3.org/2000/svg">
<g clip-path="url(#clip0_7120_12658)">
<path d="M64.2537 115.516C38.0144 111.185 20.1933 86.3268 24.5226 60.0947C25.8055 52.3213 28.994 44.9319 33.743 38.7112C33.9738 38.4085 34.4003 38.3537 34.7032 38.5845C35.006 38.8153 35.0609 39.2417 34.83 39.5445C30.215 45.5855 27.1164 52.7672 25.8704 60.3172C21.6652 85.7976 38.9829 109.954 64.4704 114.16C89.9579 118.367 114.119 101.056 118.324 75.5754C122.53 50.095 105.219 25.9397 79.7312 21.7333C67.3498 19.6899 54.9167 22.5975 44.731 29.9311C44.4232 30.1516 43.9965 30.0811 43.776 29.7735C43.5554 29.4658 43.6258 29.0392 43.9335 28.8187C54.4179 21.277 67.2143 18.2764 79.9547 20.379C106.194 24.7095 124.015 49.5681 119.686 75.8001C115.357 102.032 90.493 119.846 64.2537 115.516Z" fill="#FD9E3A"/>
<path d="M62.8707 115.844C59.9379 115.36 57.0487 114.612 54.2572 113.609C53.9026 113.481 53.7169 113.088 53.845 112.734C53.9731 112.379 54.3655 112.194 54.7201 112.322C62.1097 114.974 70.152 115.78 77.979 114.644C90.7738 112.791 102.077 106.066 109.811 95.7123C117.545 85.3587 120.783 72.6077 118.921 59.8217C117.066 47.0301 110.338 35.7296 99.981 27.9967C89.624 20.2638 76.8762 17.0261 64.0802 18.886C51.2854 20.7392 39.9825 27.4641 32.2485 37.8177C24.5144 48.1713 21.276 60.9223 23.1319 73.7072C24.9946 86.5349 31.7461 97.8601 42.1527 105.587C42.4567 105.811 42.5172 106.246 42.2931 106.55C42.069 106.853 41.6346 106.914 41.3307 106.69C30.6348 98.734 23.6853 87.0909 21.7711 73.8999C19.865 60.7451 23.1898 47.6397 31.1468 36.989C39.097 26.3373 50.7235 19.4223 63.8816 17.5178C77.0398 15.6133 90.1489 18.9384 100.804 26.8875C111.459 34.8366 118.377 46.4606 120.284 59.6154C122.19 72.7703 118.865 85.8757 110.915 96.5274C102.964 107.179 91.338 114.094 78.1798 115.999C73.0969 116.739 67.9167 116.677 62.8774 115.845L62.8707 115.844Z" fill="#FD9E3A"/>
<path d="M67.0653 90.7654C54.7381 88.7309 46.3677 77.055 48.4016 64.7313C50.4354 52.4075 62.1137 44.0404 74.4409 46.0748C86.7681 48.1092 95.1385 59.7851 93.1046 72.1089C91.0707 84.4326 79.3925 92.7998 67.0653 90.7654ZM74.2174 47.429C62.642 45.5187 51.666 53.3827 49.7562 64.9548C47.8464 76.527 55.7134 87.5007 67.2888 89.4111C78.8642 91.3215 89.8401 83.4575 91.75 71.8853C93.6598 60.3132 85.7927 49.3394 74.2174 47.429Z" fill="#FD9E3A"/>
<path d="M83.6846 54.1873C83.5491 54.1649 83.4204 54.1019 83.3187 54.0017C83.0496 53.7347 83.0376 53.3014 83.3047 53.0325L105.863 29.8368C106.13 29.5678 106.563 29.5559 106.832 29.8228C107.101 30.0898 107.113 30.5231 106.846 30.792L84.2881 53.9878C84.1281 54.1561 83.8946 54.2219 83.6846 54.1873Z" fill="#FD9E3A"/>
<path d="M117.712 83.5431C117.678 83.5375 117.638 83.5308 117.605 83.5184L87.3983 73.2956C87.0426 73.1743 86.849 72.7876 86.9714 72.4252C87.0938 72.0628 87.4795 71.8761 87.8419 71.9985L118.049 82.2214C118.404 82.3427 118.598 82.7294 118.476 83.0917C118.367 83.4146 118.043 83.6046 117.711 83.5499L117.712 83.5431Z" fill="#FD9E3A"/>
<path d="M80.5357 115.003C80.258 114.957 80.0286 114.746 79.9717 114.458L74.8949 88.517C74.8243 88.1436 75.0641 87.7867 75.4386 87.7094C75.8121 87.6389 76.1691 87.8787 76.2464 88.2531L81.3233 114.194C81.3939 114.568 81.1541 114.924 80.7795 115.002C80.6938 115.015 80.617 115.017 80.5357 115.003Z" fill="#FD9E3A"/>
<path d="M31.0239 102.742C30.8681 102.716 30.7212 102.637 30.6104 102.507C30.3662 102.216 30.4095 101.785 30.7003 101.541L53.7807 82.3475C54.0715 82.1034 54.5027 82.1467 54.7469 82.4374C54.9911 82.7281 54.9478 83.1592 54.6571 83.4034L31.5766 102.597C31.4155 102.73 31.2124 102.78 31.0227 102.749L31.0239 102.742Z" fill="#FD9E3A"/>
<path d="M63.8273 49.213C63.5699 49.1705 63.3439 48.9802 63.2768 48.7118L57.3542 25.9142C57.2611 25.5511 57.4771 25.1694 57.8471 25.0774C58.2115 24.9776 58.5922 25.2004 58.6842 25.5703L64.6068 48.3679C64.7 48.731 64.4839 49.1127 64.1139 49.2047C64.0191 49.2308 63.921 49.2354 63.8261 49.2198L63.8273 49.213Z" fill="#FD9E3A"/>
<path d="M52.9404 62.5241C52.9404 62.5241 52.8862 62.5151 52.8524 62.5096L21.716 53.1975C21.3513 53.0886 21.143 52.7065 21.2587 52.343C21.3675 51.9784 21.7498 51.7702 22.1134 51.8859L53.2497 61.1979C53.6144 61.3068 53.8227 61.6889 53.7071 62.0524C53.6105 62.3843 53.278 62.5868 52.9393 62.5309L52.9404 62.5241Z" fill="#FD9E3A"/>
<g opacity="0.7">
<path d="M38.6621 56.4602C38.3505 56.4088 38.1086 56.1462 38.0923 55.8236C38.0714 55.4863 38.3022 55.1835 38.6272 55.112L46.0876 53.4566L30.5433 53.7152C30.1878 53.7191 29.8838 53.4533 29.8459 53.0924C29.8137 52.7393 30.0559 52.4106 30.4135 52.3513L48.6988 49.1437L29.884 50.1216C29.5262 50.1391 29.2143 49.8789 29.1686 49.5236C29.1229 49.1682 29.365 48.8396 29.7181 48.7657L51.3027 44.454L34.5089 45.3272C34.1511 45.3447 33.8325 45.0834 33.7946 44.7225C33.7489 44.3671 33.9921 44.0317 34.3441 43.9645L51.0156 40.7549L35.1981 40.9824C34.8494 40.9874 34.551 40.7295 34.5042 40.3809C34.4641 40.0335 34.6916 39.7093 35.0322 39.6264L50.1188 36.1552L37.9936 36.8599C37.6494 36.8796 37.3477 36.642 37.2783 36.3036C37.2157 35.9664 37.4025 35.6355 37.7341 35.5233L47.6475 32.1582L41.6802 33.1558C41.3011 33.2184 40.9531 32.9662 40.8893 32.594C40.8255 32.2218 41.0788 31.8671 41.4511 31.8033L55.7743 29.4164C56.1252 29.3561 56.4641 29.5789 56.5527 29.9274C56.6413 30.2759 56.4433 30.6328 56.1049 30.7439L42.978 35.1993L58.1658 34.3184C58.5236 34.3009 58.8366 34.5543 58.8834 34.9029C58.9359 35.2593 58.7074 35.5903 58.3599 35.672L41.624 39.5249L58.7732 39.2807C59.1287 39.2768 59.4327 39.5426 59.4649 39.8957C59.5038 40.2499 59.2628 40.5718 58.9108 40.6389L44.3164 43.4471L60.6328 42.5994C60.9906 42.582 61.3025 42.8421 61.3482 43.1974C61.3939 43.5528 61.1518 43.8815 60.7987 43.9553L39.2356 48.2636L59.8684 47.1893C60.2329 47.1729 60.5437 47.4398 60.5894 47.7952C60.6272 48.1561 60.3851 48.4848 60.0264 48.5508L39.2397 52.2012L52.8453 51.9704C53.194 51.9653 53.4991 52.2244 53.5381 52.5786C53.5781 52.926 53.3507 53.2502 53.0032 53.332L43.1093 55.5248L52.8921 56.4924C53.268 56.5336 53.5473 56.8648 53.5062 57.2406C53.4718 57.6175 53.1337 57.8956 52.7578 57.8544L38.7038 56.4601C38.7038 56.4601 38.6768 56.4556 38.6564 56.4523L38.6621 56.4602Z" fill="#FD9E3A"/>
</g>
<g opacity="0.7">
<path d="M118.217 80.4824L110.293 79.1746C109.995 79.1254 109.763 78.8854 109.723 78.5797C109.69 78.2752 109.848 77.9883 110.133 77.8683L111.489 77.2784L101.147 75.5715C100.801 75.5145 100.554 75.2023 100.577 74.8514C100.6 74.5005 100.883 74.2202 101.233 74.2084L107.007 73.9581L93.6509 72.8876C93.2999 72.8645 93.0162 72.5603 93.019 72.206C93.0218 71.8517 93.2944 71.5489 93.6532 71.5247L105.116 70.6202L95.4899 70.4714C95.1299 70.4607 94.8349 70.1825 94.8174 69.8248C94.7999 69.4672 95.0601 69.1554 95.4166 69.103L105.355 67.8217L91.3359 67.8174C90.9669 67.8191 90.673 67.5341 90.6498 67.1686C90.6266 66.8031 90.8947 66.4856 91.2558 66.4478L103.937 65.0281L94.2985 65.1693C93.9352 65.1789 93.6334 64.8995 93.6023 64.5397C93.5713 64.1798 93.8326 63.8612 94.1891 63.8088L106.141 62.0878L92.0681 61.4416C91.7024 61.423 91.4164 61.1323 91.4147 60.7634C91.4118 60.4012 91.6844 60.0984 92.0512 60.0685L107.363 58.902L90.843 57.6503C90.4785 57.6249 90.2026 57.315 90.2065 56.954C90.2105 56.5929 90.5034 56.2935 90.8668 56.2839L106.904 55.6544L91.2487 54.4758C90.8841 54.4504 90.6082 54.1406 90.6121 53.7795C90.6161 53.4185 90.909 53.119 91.2724 53.1095L106.135 52.5156L103.774 52.3139C103.431 52.2851 103.164 52.0046 103.144 51.6673C103.124 51.3232 103.361 51.0216 103.699 50.959L104.446 50.818L88.8127 51.4028C88.4561 51.4135 88.1442 51.1534 88.1053 50.7992C88.0663 50.4449 88.3016 50.1151 88.6536 50.048L103.194 47.1891L91.2672 47.8709C90.9084 47.8952 90.5965 47.635 90.5507 47.2797C90.4983 46.9233 90.7336 46.5934 91.081 46.5117L102.934 43.8284L95.1252 44.0977C94.7754 44.1096 94.4635 43.8494 94.4178 43.4941C94.3721 43.1387 94.6063 42.8157 94.9594 42.7418L104.885 40.6516L95.6981 40.3736C95.3449 40.364 95.0566 40.0869 95.0312 39.7349C95.0058 39.3829 95.2592 39.07 95.609 39.0164L102.384 37.9296L98.1857 37.7793C97.846 37.7719 97.5635 37.5027 97.529 37.1631C97.4946 36.8236 97.721 36.5062 98.0538 36.4289L99.8655 35.9906L98.5044 35.9747C98.1297 35.9685 97.8189 35.6598 97.8262 35.2785C97.8334 34.8971 98.141 34.5931 98.5225 34.6004L105.375 34.688C105.723 34.6897 106.013 34.9533 106.047 35.2996C106.087 35.6471 105.86 35.9645 105.528 36.0417L103.26 36.5856L109.451 36.8074C109.804 36.817 110.091 37.1009 110.11 37.4517C110.128 37.8026 109.882 38.1166 109.532 38.1702L102.971 39.2228L110.677 39.4513C111.024 39.4598 111.306 39.729 111.339 40.0753C111.373 40.4216 111.14 40.7379 110.794 40.8061L102.987 42.453L110.174 42.2061C110.53 42.1954 110.836 42.4544 110.876 42.8019C110.922 43.1505 110.694 43.4814 110.348 43.5564L99.4632 46.017L113.089 45.24C113.448 45.2158 113.766 45.4838 113.811 45.8392C113.857 46.1945 113.614 46.53 113.262 46.5971L97.4987 49.6993L113.398 49.1027C113.761 49.0932 114.067 49.3522 114.104 49.7132C114.143 50.0674 113.901 50.3961 113.549 50.4632L108.85 51.364L117.229 52.0721C117.585 52.1031 117.862 52.4062 117.857 52.774C117.847 53.1339 117.562 53.4277 117.197 53.4441L103.224 54.0038L118.962 55.189C119.325 55.2212 119.602 55.5243 119.598 55.8853C119.594 56.2464 119.301 56.5458 118.938 56.5554L102.874 57.1804L116.494 58.2109C116.852 58.2352 117.129 58.5383 117.126 58.8926C117.122 59.2536 116.85 59.5496 116.492 59.5739L103.4 60.5711L113.454 61.034C113.813 61.0515 114.093 61.3343 114.112 61.6852C114.13 62.036 113.877 62.3489 113.521 62.3946L104.982 63.6286L118.123 63.4323C118.493 63.4238 118.794 63.7099 118.817 64.0755C118.84 64.441 118.572 64.7584 118.21 64.803L103.585 66.4446L116.011 66.4503C116.372 66.4542 116.674 66.7336 116.698 67.0923C116.722 67.4511 116.461 67.7696 116.099 67.8142L105.037 69.2438L119.63 69.4752C119.998 69.4803 120.291 69.772 120.306 70.1432C120.316 70.5065 120.041 70.8228 119.676 70.846L102.376 72.213L118.225 73.4793C118.582 73.5103 118.866 73.8145 118.855 74.1745C118.851 74.5355 118.558 74.835 118.201 74.8457L107.914 75.2903L114.037 76.3008C114.335 76.35 114.567 76.5899 114.607 76.8956C114.64 77.2002 114.482 77.487 114.197 77.6071L112.841 78.197L118.469 79.1259C118.842 79.1874 119.096 79.5424 119.035 79.9148C118.973 80.2872 118.618 80.5416 118.246 80.4801L118.217 80.4824Z" fill="#FD9E3A"/>
</g>
<g opacity="0.7">
<path d="M64.4213 114.5C64.1572 114.457 63.9323 114.259 63.8652 113.991C63.7766 113.643 63.9736 113.293 64.3131 113.175L71.9323 110.599L57.2585 111.148C56.9019 111.159 56.59 110.898 56.5522 110.537C56.5132 110.183 56.7553 109.855 57.1073 109.787L66.8844 107.923L51.1026 109.325C50.7359 109.355 50.4093 109.099 50.3591 108.729C50.3077 108.366 50.5588 108.025 50.9165 107.966L64.7305 105.502L45.8066 106.719C45.4409 106.742 45.1234 106.474 45.0788 106.112C45.0342 105.75 45.2842 105.416 45.6418 105.356L63.4308 102.248L46.3173 103.666C45.9506 103.696 45.6319 103.435 45.5805 103.072C45.5292 102.709 45.7724 102.373 46.1312 102.307L63.5226 99.0353L38.886 101.056C38.5193 101.086 38.1949 100.816 38.1503 100.454C38.1069 100.085 38.3636 99.7522 38.7281 99.6941L53.3087 97.3914L36.7685 98.7934C36.4018 98.8233 36.0763 98.5609 36.0317 98.1988C35.9871 97.8367 36.2315 97.4945 36.5959 97.4364L55.9192 94.0523L39.7824 95.7086C39.4145 95.7453 39.0812 95.4885 39.0309 95.1186C38.9796 94.7553 39.2239 94.4131 39.5894 94.3482L46.6962 93.0657L41.4704 93.4483C41.0969 93.4771 40.7805 93.2023 40.737 92.8334C40.7003 92.4657 40.957 92.1325 41.3203 92.0811L52.2208 90.5344L44.9217 90.7487C44.5718 90.7606 44.2735 90.5026 44.2187 90.1597C44.1719 89.8112 44.3858 89.4848 44.7265 89.4019L51.9507 87.5336C52.0135 87.2797 52.2152 87.0695 52.495 87.0183L57.4885 86.1035C57.854 86.0386 58.2054 86.2705 58.285 86.6314C58.3646 86.9923 58.1451 87.3526 57.7886 87.4468L50.993 89.2049L64.508 88.8061C64.8714 88.7965 65.1811 89.0702 65.211 89.4369C65.2421 89.7967 64.9864 90.1232 64.6231 90.1745L59.9429 90.835C60.1282 90.9351 60.2707 91.1256 60.2959 91.3523C60.3405 91.7144 60.0973 92.0499 59.7385 92.1159L57.5655 92.5085L75.0045 90.7193C75.3724 90.6826 75.7057 90.9393 75.756 91.3093C75.8073 91.6725 75.5562 92.0137 75.1975 92.0797L52.0629 96.1286L72.1734 94.4255C72.5401 94.3956 72.8723 94.6591 72.9158 95.0279C72.9593 95.3968 72.7093 95.7312 72.3381 95.7882L57.0579 98.198L76.5377 96.6064C76.8976 96.5754 77.2231 96.8378 77.2745 97.201C77.3258 97.5642 77.0826 97.8997 76.7238 97.9657L59.4622 101.21L78.4521 99.6351C78.8189 99.6052 79.1443 99.8676 79.1889 100.23C79.2335 100.592 78.9903 100.927 78.6248 100.992L58.2849 104.549L76.8015 103.355C77.1671 103.332 77.4847 103.6 77.5304 103.956C77.575 104.318 77.325 104.652 76.9673 104.711L66.4432 106.591L80.459 105.35C80.8257 105.32 81.1523 105.576 81.1969 105.938C81.2483 106.301 81.0051 106.637 80.6452 106.709L66.3 109.44L76.5986 109.053C76.9417 109.04 77.2366 109.277 77.2992 109.614C77.3619 109.951 77.1683 110.281 76.8446 110.388L72.5561 111.836L79.9542 110.644C80.2904 110.588 80.6191 110.788 80.7178 111.117C80.8177 111.44 80.6614 111.797 80.3592 111.942L77.4757 113.309L82.1033 112.925C82.4836 112.897 82.8135 113.174 82.8413 113.555C82.869 113.935 82.5919 114.265 82.2116 114.292L73.8163 114.993C73.4845 115.022 73.1794 114.805 73.0999 114.486C73.0136 114.165 73.1666 113.829 73.4688 113.684L75.4084 112.766L64.6436 114.502C64.5714 114.518 64.4958 114.512 64.4213 114.5Z" fill="#FD9E3A"/>
</g>
<path d="M89.0464 21.8237C89.0126 21.8181 88.9719 21.8114 88.9392 21.7991L82.2149 19.5416C81.8987 19.4338 81.7018 19.1092 81.7566 18.7774L82.4193 14.762C82.4807 14.3896 82.8358 14.1351 83.2084 14.1966C83.5809 14.2581 83.8354 14.6131 83.7739 14.9855L83.2062 18.4254L88.9221 20.3425L90.6499 18.221L84.4241 15.7676C84.0718 15.6259 83.9007 15.229 84.0356 14.8757C84.1772 14.5235 84.5742 14.3525 84.9276 14.4873L92.0229 17.279C92.2251 17.361 92.3777 17.5323 92.4333 17.7432C92.489 17.9541 92.4374 18.1821 92.3057 18.3481L89.687 21.5677C89.5305 21.7575 89.2857 21.8493 89.0419 21.809L89.0464 21.8237Z" fill="#FD9E3A"/>
<path d="M119.157 76.3458L119.144 76.3435C118.773 76.2753 118.526 75.9146 118.594 75.5433L118.849 74.1664C118.718 74.0335 118.639 73.8396 118.651 73.6399C118.666 73.3781 118.827 73.1612 119.053 73.0593L120.582 64.8048C120.614 64.6085 120.739 64.4413 120.91 64.3372C121.08 64.2332 121.285 64.2114 121.476 64.2777L124.732 65.3366C125.056 65.4388 125.252 65.7634 125.197 66.102L123.885 74.0515C123.828 74.3968 123.514 74.6512 123.163 74.628L120.204 74.4318L119.95 75.8019C119.882 76.1732 119.529 76.414 119.163 76.3537L119.157 76.3458ZM121.791 65.8252L120.45 73.0673L122.625 73.2106L123.739 66.4596L121.791 65.8252Z" fill="#FD9E3A"/>
<path d="M123.101 66.1527C122.857 66.1125 122.642 65.9379 122.558 65.6876C122.489 65.4744 120.849 60.3208 122.565 52.9179C122.91 51.4168 123.42 50.0124 123.917 48.6476C125.846 43.3249 127.671 38.2911 119.639 27.9788C114.365 21.1959 108.495 21.9383 103.784 22.5311C102.328 22.715 100.956 22.892 99.7661 22.807C94.7931 22.4593 91.1381 19.2685 90.9867 19.1322C90.7007 18.8833 90.6752 18.4479 90.9309 18.1632C91.1799 17.8773 91.6154 17.8518 91.9014 18.1007C91.9375 18.1345 95.3698 21.1146 99.8677 21.4326C100.92 21.5088 102.171 21.3467 103.62 21.1685C108.409 20.5608 114.967 19.7372 120.725 27.1354C129.215 38.045 127.179 43.6771 125.21 49.1183C124.734 50.438 124.237 51.8096 123.905 53.2295C122.283 60.2306 123.848 65.2117 123.867 65.2636C123.981 65.6233 123.786 66.0084 123.425 66.1296C123.314 66.1671 123.209 66.1706 123.101 66.1527Z" fill="#FD9E3A"/>
<path d="M81.4387 119.82C81.1949 119.779 80.9802 119.605 80.8963 119.354L79.9605 116.466L78.6474 116.792C78.2774 116.884 77.9102 116.664 77.8182 116.294C77.7262 115.924 77.9479 115.55 78.3168 115.465L79.7687 115.099C79.8531 114.967 79.9827 114.856 80.1451 114.8C80.3436 114.735 80.5401 114.767 80.705 114.864L88.9785 112.794C89.1747 112.742 89.3836 112.784 89.5519 112.902C89.7135 113.019 89.821 113.211 89.8304 113.407L90.1032 117.361C90.124 117.699 89.8989 118.009 89.5672 118.08L81.6983 119.807C81.6114 119.827 81.5211 119.826 81.4398 119.813L81.4387 119.82ZM81.2962 116.13L82.0107 118.335L88.6962 116.865L88.5171 114.324L81.2962 116.13Z" fill="#FD9E3A"/>
<path d="M86.4584 117.142C86.2417 117.107 86.0485 116.97 85.9511 116.76C85.7846 116.419 85.9284 116.012 86.269 115.845C86.4347 115.768 90.3738 113.907 97.8857 113.373C99.54 113.257 101.059 113.368 102.523 113.478C107.637 113.856 112.049 114.188 119.396 103.694C124.629 96.2243 122.481 90.1869 120.92 85.7767C120.535 84.6907 120.169 83.6634 119.954 82.7307C118.821 77.8764 120.798 73.4449 120.877 73.2632C121.031 72.9199 121.439 72.7647 121.782 72.9188C122.126 73.0728 122.281 73.481 122.127 73.8242C122.107 73.8626 120.264 78.031 121.287 82.415C121.486 83.2755 121.837 84.2656 122.213 85.3155C123.874 90.0065 126.154 96.4273 120.519 104.477C112.725 115.614 107.715 115.239 102.423 114.846C101.007 114.737 99.5434 114.628 97.9873 114.74C90.7574 115.251 86.9029 117.063 86.8657 117.078C86.7372 117.14 86.595 117.158 86.4595 117.136L86.4584 117.142Z" fill="#FD9E3A"/>
<path d="M30.1364 100.279C29.9806 100.254 29.827 100.173 29.7229 100.044L24.8538 94.1767C24.6163 93.8871 24.6517 93.4617 24.9357 93.2165L27.9752 90.6089C28.1217 90.48 28.3112 90.4278 28.5031 90.4456C28.6939 90.4701 28.8644 90.5748 28.9787 90.7258L34.372 98.3073C34.5926 98.615 34.5211 99.0483 34.2144 99.2621C33.9067 99.4825 33.4732 99.411 33.2594 99.1044L28.3016 92.1304L26.3485 93.8044L30.7891 99.1489C31.0333 99.4396 30.99 99.8706 30.6992 100.115C30.5381 100.248 30.3361 100.291 30.1465 100.26L30.1364 100.279Z" fill="#FD9E3A"/>
<path d="M26.305 43.8135C26.1831 43.7933 26.06 43.7383 25.9628 43.6527L23.3916 41.399C23.1362 41.176 23.0803 40.7981 23.2661 40.5157L27.6011 33.7259C27.789 33.43 28.176 33.32 28.49 33.4831L31.1341 34.8307L31.903 33.6708C32.1147 33.3579 32.54 33.2681 32.853 33.4798C33.1659 33.6914 33.2558 34.1166 33.0441 34.4295L32.2673 35.595C32.3353 35.7732 32.3368 35.9751 32.2366 36.1603C32.1151 36.3907 31.8829 36.5332 31.6391 36.5347L26.9805 43.5146C26.8702 43.6772 26.6988 43.788 26.4991 43.8177C26.428 43.8268 26.366 43.8235 26.2982 43.8123L26.305 43.8135ZM24.7369 40.7515L26.2808 42.1053L30.3674 35.9771L28.4224 34.9883L24.7358 40.7583L24.7369 40.7515Z" fill="#FD9E3A"/>
<path d="M30.1906 96.9565C29.9468 96.9163 29.7377 96.7496 29.6538 96.4992C29.6402 96.4553 28.1288 92.1646 24.3734 89.6667C23.4956 89.0836 22.329 88.6059 20.9806 88.0495C16.5186 86.2072 10.4011 83.6882 9.05089 74.4159C7.05809 60.732 11.6089 56.8506 16.0143 53.0912C17.0838 52.1756 18.1916 51.2386 19.1762 50.163C24.0926 44.8255 26.0892 38.7557 26.1072 38.6891C26.2228 38.3257 26.6164 38.1333 26.9732 38.2478C27.3368 38.3634 27.5304 38.7501 27.4148 39.1136C27.3305 39.371 25.3036 45.5401 20.1844 51.0945C19.1413 52.23 18.0007 53.1964 16.8997 54.1346C12.5912 57.8126 8.51822 61.286 10.406 74.2153C11.6466 82.7182 17.1125 84.9697 21.4965 86.7783C22.8517 87.3358 24.1346 87.8675 25.1254 88.5249C29.2763 91.2827 30.8795 95.8599 30.9453 96.0516C31.0666 96.4124 30.8777 96.7986 30.5167 96.9199C30.4062 96.9573 30.2933 96.9665 30.185 96.9486L30.1906 96.9565Z" fill="#FD9E3A"/>
<path d="M29.3971 35.9977C29.2277 35.9698 29.0628 35.873 28.9554 35.7231C28.7348 35.4154 28.7984 34.9877 29.1062 34.7672C29.1456 34.739 32.7943 32.0233 34.0648 27.6978C34.3229 26.8083 34.4826 25.7983 34.6524 24.7273C35.3461 20.3136 36.2027 14.8278 44.9648 10.6397C58.0989 4.37001 62.1846 6.63716 67.3615 9.50173C68.273 10.0069 69.223 10.5323 70.2553 11.0227C76.9009 14.1783 84.4042 16.6061 84.4764 16.6319C84.84 16.7476 85.0336 17.1343 84.918 17.4977C84.8023 17.8612 84.4088 18.0536 84.052 17.9391C83.9797 17.9133 76.3906 15.4574 69.6615 12.2602C68.5908 11.7496 67.6216 11.214 66.6908 10.6987C61.8585 8.02317 58.0393 5.91131 45.5469 11.8765C37.4355 15.7477 36.6715 20.6297 35.9958 24.9351C35.8193 26.0467 35.6596 27.0985 35.3723 28.0805C33.9705 32.8643 30.0715 35.7473 29.9058 35.8661C29.748 35.9791 29.5675 36.0189 29.3914 35.9898L29.3971 35.9977Z" fill="#FD9E3A"/>
<path d="M55.6348 127.226C54.7407 127.078 53.8025 126.861 52.827 126.575C39.7915 122.719 38.5545 117.862 37.2404 112.713C36.8894 111.341 36.526 109.917 35.9289 108.476C33.1235 101.739 30.2655 97.9775 30.2373 97.9381C30.0088 97.6361 30.0657 97.2072 30.361 96.9778C30.663 96.7494 31.092 96.8063 31.3216 97.1015C31.4415 97.2604 34.3119 101.031 37.192 107.947C37.8299 109.479 38.2058 110.953 38.5693 112.376C39.8301 117.342 40.925 121.626 53.2108 125.261C61.9614 127.846 67.003 123.899 70.6864 121.015C71.5971 120.303 72.4515 119.637 73.2655 119.132C77.5102 116.514 82.339 116.977 82.5433 117.004C82.9135 117.037 83.1905 117.382 83.1562 117.759C83.115 118.135 82.7837 118.414 82.401 118.372C82.3536 118.364 77.824 117.943 73.9829 120.307C73.232 120.768 72.4013 121.417 71.5289 122.107C68.0214 124.853 63.3404 128.511 55.6258 127.238L55.6348 127.226Z" fill="#FD9E3A"/>
</g>
<defs>
<clipPath id="clip0_7120_12658">
<rect width="118.761" height="119.641" fill="white" transform="translate(19.4814) rotate(9.37139)"/>
</clipPath>
</defs>
</svg>
