<svg width="311" height="215" viewBox="0 0 311 215" fill="none" xmlns="http://www.w3.org/2000/svg">
<g clip-path="url(#clip0_7564_10451)">
<path d="M156.544 258.944C99.677 258.944 53.406 212.671 53.406 155.8C53.406 98.9292 99.677 52.6553 156.544 52.6553C213.411 52.6553 259.682 98.9292 259.682 155.8C259.682 212.671 213.411 258.944 156.544 258.944ZM156.544 56.5227C101.804 56.5227 57.2732 101.056 57.2732 155.8C57.2732 210.543 101.804 255.077 156.544 255.077C211.284 255.077 255.815 210.543 255.815 155.8C255.815 101.056 211.284 56.5227 156.544 56.5227Z" fill="#D2C5ED"/>
<path d="M156.544 239.278C138.31 239.278 120.985 233.497 106.445 222.571C105.594 221.933 105.42 220.715 106.058 219.864C106.696 219.013 107.914 218.839 108.765 219.477C122.629 229.9 139.161 235.411 156.544 235.411C200.437 235.411 236.15 199.695 236.15 155.8C236.15 111.904 200.437 76.1885 156.544 76.1885C112.652 76.1885 76.938 111.904 76.938 155.8C76.938 168.678 80.0898 181.479 86.0259 192.792C86.5286 193.739 86.1613 194.899 85.2138 195.402C84.2663 195.905 83.1062 195.538 82.6034 194.59C76.3579 182.717 73.0708 169.297 73.0708 155.8C73.0708 109.777 110.525 72.321 156.544 72.321C202.564 72.321 240.018 109.777 240.018 155.8C240.018 201.822 202.564 239.278 156.544 239.278Z" fill="#D2C5ED"/>
<path d="M156.544 189.118C138.175 189.118 123.228 174.17 123.228 155.8C123.228 137.429 138.175 122.482 156.544 122.482C162.171 122.482 167.72 123.913 172.612 126.601C173.541 127.123 173.889 128.283 173.366 129.23C172.844 130.159 171.684 130.507 170.737 129.985C166.425 127.606 161.514 126.349 156.544 126.349C140.302 126.349 127.095 139.556 127.095 155.8C127.095 172.043 140.302 185.25 156.544 185.25C172.786 185.25 185.993 172.043 185.993 155.8C185.993 149.38 183.963 143.269 180.115 138.145C179.477 137.294 179.651 136.076 180.501 135.438C181.352 134.799 182.57 134.974 183.209 135.824C187.559 141.626 189.86 148.529 189.86 155.8C189.86 174.17 174.913 189.118 156.544 189.118Z" fill="#D2C5ED"/>
<path d="M145.929 128.186C145.194 128.186 144.498 127.78 144.169 127.065L96.4865 24.0361C96.0417 23.0692 96.4671 21.909 97.4339 21.4643C98.4007 21.0195 99.5609 21.4449 100.006 22.4118L147.707 125.421C148.152 126.388 147.727 127.548 146.76 127.993C146.489 128.109 146.219 128.167 145.948 128.167L145.929 128.186Z" fill="#D2C5ED"/>
<path d="M139.045 131.667C138.33 131.667 137.653 131.261 137.305 130.584L88.3847 30.9588C87.9206 29.9919 88.3073 28.851 89.2741 28.3676C90.2409 27.9035 91.4011 28.2903 91.8652 29.2571L140.785 128.882C141.249 129.849 140.863 130.99 139.896 131.474C139.625 131.609 139.335 131.667 139.045 131.667Z" fill="#D2C5ED"/>
<path d="M91.1886 37.3014C82.6421 37.3014 75.7004 30.3594 75.7004 21.8123C75.7004 13.2653 82.6421 6.32324 91.1886 6.32324C99.7351 6.32324 106.677 13.2653 106.677 21.8123C106.677 30.3594 99.7351 37.3014 91.1886 37.3014ZM91.1886 10.1907C84.769 10.1907 79.5676 15.4117 79.5676 21.8123C79.5676 28.2129 84.7884 33.434 91.1886 33.434C97.5888 33.434 102.809 28.2129 102.809 21.8123C102.809 15.4117 97.5888 10.1907 91.1886 10.1907Z" fill="#D2C5ED"/>
<path d="M212.754 289.71C212.019 289.71 211.323 289.304 210.994 288.588L163.292 185.579C162.848 184.612 163.273 183.452 164.24 183.007C165.207 182.562 166.367 182.988 166.812 183.955L214.513 286.964C214.958 287.931 214.533 289.091 213.566 289.536C213.295 289.652 213.025 289.71 212.754 289.71Z" fill="#D2C5ED"/>
<path d="M220.875 282.845C220.16 282.845 219.483 282.439 219.135 281.762L170.215 182.137C169.751 181.17 170.137 180.029 171.104 179.546C172.071 179.082 173.212 179.468 173.695 180.435L222.615 280.061C223.079 281.027 222.693 282.168 221.726 282.652C221.455 282.787 221.165 282.845 220.875 282.845Z" fill="#D2C5ED"/>
<path d="M23.2419 214.701C22.5071 214.701 21.811 214.295 21.4823 213.579C21.0376 212.612 21.463 211.452 22.4298 211.007L125.433 163.303C126.399 162.858 127.56 163.283 128.004 164.25C128.449 165.217 128.024 166.377 127.057 166.822L24.054 214.527C23.7833 214.643 23.5126 214.701 23.2419 214.701Z" fill="#D2C5ED"/>
<path d="M30.1061 222.822C29.3907 222.822 28.7139 222.416 28.3659 221.74C27.9018 220.773 28.2885 219.632 29.2553 219.148L128.874 170.225C129.841 169.761 130.982 170.148 131.465 171.115C131.929 172.082 131.543 173.223 130.576 173.706L30.9569 222.629C30.6862 222.764 30.3962 222.822 30.1061 222.822Z" fill="#D2C5ED"/>
<path d="M21.8109 235.314C13.2644 235.314 6.32275 228.372 6.32275 219.825C6.32275 211.278 13.2644 204.336 21.8109 204.336C30.3574 204.336 37.299 211.278 37.299 219.825C37.299 228.372 30.3574 235.314 21.8109 235.314ZM21.8109 208.184C15.3913 208.184 10.19 213.405 10.19 219.806C10.19 226.206 15.4107 231.427 21.8109 231.427C28.2111 231.427 33.4318 226.206 33.4318 219.806C33.4318 213.405 28.2111 208.184 21.8109 208.184Z" fill="#D2C5ED"/>
<path d="M184.755 147.872C184.021 147.872 183.324 147.465 182.996 146.75C182.551 145.783 182.976 144.623 183.943 144.178L286.946 96.4733C287.913 96.0285 289.073 96.454 289.518 97.4208C289.962 98.3877 289.537 99.5479 288.57 99.9927L185.567 147.698C185.297 147.814 185.026 147.872 184.755 147.872Z" fill="#D2C5ED"/>
<path d="M181.275 140.987C180.559 140.987 179.883 140.581 179.535 139.905C179.071 138.938 179.457 137.797 180.424 137.313L280.043 88.3903C281.01 87.9262 282.151 88.313 282.634 89.2798C283.098 90.2467 282.711 91.3876 281.745 91.871L182.126 140.794C181.855 140.929 181.565 140.987 181.275 140.987Z" fill="#D2C5ED"/>
<path d="M289.189 106.683C280.643 106.683 273.701 99.7412 273.701 91.1942C273.701 82.6471 280.643 75.7051 289.189 75.7051C297.736 75.7051 304.677 82.6471 304.677 91.1942C304.677 99.7412 297.736 106.683 289.189 106.683ZM289.189 79.5725C282.769 79.5725 277.568 84.7936 277.568 91.1942C277.568 97.5948 282.789 102.816 289.189 102.816C295.589 102.816 300.81 97.5948 300.81 91.1942C300.81 84.7936 295.589 79.5725 289.189 79.5725Z" fill="#D2C5ED"/>
<path d="M102.462 291.469C102.249 291.469 102.017 291.431 101.804 291.353C100.799 290.986 100.296 289.884 100.663 288.878L139.78 182.311C140.147 181.305 141.249 180.803 142.255 181.17C143.26 181.538 143.763 182.64 143.396 183.645L104.279 290.213C103.989 290.986 103.254 291.489 102.462 291.489V291.469Z" fill="#D2C5ED"/>
<path d="M113.057 292.34C112.845 292.34 112.632 292.301 112.439 292.243C111.433 291.895 110.892 290.793 111.24 289.787L147.089 184.728C147.437 183.723 148.539 183.181 149.544 183.529C150.55 183.877 151.091 184.979 150.743 185.985L114.894 291.044C114.624 291.856 113.87 292.359 113.057 292.359V292.34Z" fill="#D2C5ED"/>
<path d="M169.422 129.985C169.209 129.985 168.977 129.946 168.765 129.869C167.759 129.501 167.256 128.399 167.624 127.393L206.74 20.8261C207.108 19.8206 208.21 19.3178 209.215 19.6852C210.221 20.0526 210.724 21.1549 210.356 22.1604L171.24 128.728C170.949 129.501 170.215 130.004 169.422 130.004V129.985Z" fill="#D2C5ED"/>
<path d="M162.094 127.587C161.881 127.587 161.668 127.548 161.475 127.49C160.469 127.142 159.928 126.04 160.276 125.034L196.125 19.9754C196.473 18.9699 197.575 18.4284 198.581 18.7765C199.586 19.1246 200.127 20.2268 199.779 21.2323L163.93 126.291C163.66 127.103 162.906 127.606 162.094 127.606V127.587Z" fill="#D2C5ED"/>
<path d="M204.556 30.9782C200.418 30.9782 196.531 29.3732 193.592 26.434C187.559 20.4008 187.559 10.5582 193.592 4.52495C196.512 1.60504 200.418 -0.0192871 204.556 -0.0192871C208.693 -0.0192871 212.58 1.5857 215.519 4.52495C221.552 10.5582 221.552 20.4008 215.519 26.434C212.599 29.3539 208.693 30.9782 204.556 30.9782ZM204.556 3.86749C201.442 3.86749 198.523 5.08573 196.338 7.27083C191.813 11.7957 191.813 19.1825 196.338 23.7074C198.542 25.8925 201.462 27.1108 204.556 27.1108C207.649 27.1108 210.588 25.9119 212.773 23.7074C217.298 19.1825 217.298 11.7957 212.773 7.27083C210.569 5.06639 207.649 3.86749 204.556 3.86749Z" fill="#D2C5ED"/>
<path d="M289.518 210.485C289.305 210.485 289.073 210.447 288.86 210.369L182.3 171.25C181.294 170.883 180.791 169.78 181.159 168.775C181.526 167.769 182.628 167.267 183.634 167.634L290.194 206.753C291.2 207.121 291.703 208.223 291.335 209.228C291.045 210.002 290.311 210.505 289.518 210.505V210.485Z" fill="#D2C5ED"/>
<path d="M290.388 199.889C290.175 199.889 289.963 199.85 289.769 199.792L184.717 163.941C183.711 163.593 183.17 162.49 183.518 161.485C183.866 160.479 184.968 159.938 185.974 160.286L291.026 196.137C292.031 196.485 292.573 197.587 292.225 198.593C291.954 199.405 291.2 199.908 290.388 199.908V199.889Z" fill="#D2C5ED"/>
<path d="M295.493 220.057C291.355 220.057 287.468 218.452 284.548 215.513C281.629 212.593 280.004 208.687 280.004 204.549C280.004 200.411 281.609 196.524 284.548 193.585C287.468 190.665 291.374 189.04 295.493 189.04C299.611 189.04 303.517 190.645 306.437 193.585C309.356 196.504 310.981 200.411 310.981 204.549C310.981 208.687 309.376 212.574 306.437 215.494C303.517 218.413 299.611 220.038 295.493 220.038V220.057ZM295.493 192.946C292.379 192.946 289.46 194.145 287.275 196.35C285.07 198.554 283.872 201.474 283.872 204.568C283.872 207.662 285.07 210.601 287.275 212.786C289.479 214.971 292.379 216.19 295.493 216.19C298.606 216.19 301.525 214.971 303.71 212.786C305.915 210.582 307.113 207.662 307.113 204.568C307.113 201.474 305.895 198.535 303.71 196.35C301.506 194.145 298.586 192.946 295.493 192.946Z" fill="#D2C5ED"/>
<path d="M128.043 143.501C127.83 143.501 127.598 143.463 127.385 143.385L20.8248 104.285C19.8194 103.918 19.3166 102.816 19.684 101.81C20.0514 100.805 21.1535 100.302 22.159 100.669L128.72 139.789C129.725 140.156 130.228 141.258 129.86 142.264C129.57 143.037 128.836 143.54 128.043 143.54V143.501Z" fill="#D2C5ED"/>
<path d="M125.645 150.85C125.433 150.85 125.22 150.811 125.027 150.753L19.9741 114.902C18.9686 114.554 18.4272 113.451 18.7753 112.446C19.1233 111.44 20.2255 110.899 21.2309 111.247L126.283 147.098C127.289 147.446 127.83 148.548 127.482 149.554C127.211 150.366 126.457 150.869 125.645 150.869V150.85Z" fill="#D2C5ED"/>
<path d="M15.4881 121.94C11.3502 121.94 7.46369 120.335 4.54396 117.396C1.62422 114.476 0 110.57 0 106.432C0 102.294 1.60489 98.407 4.54396 95.4871C7.46369 92.5672 11.3696 90.9429 15.4881 90.9429C19.6067 90.9429 23.5126 92.5479 26.4516 95.4871C29.3714 98.407 30.9956 102.313 30.9956 106.451C30.9956 110.589 29.3907 114.476 26.4516 117.396C23.5319 120.316 19.626 121.94 15.4881 121.94ZM15.4881 94.8103C12.375 94.8103 9.4553 96.0092 7.27033 98.2137C5.06603 100.418 3.8672 103.338 3.8672 106.432C3.8672 109.526 5.08536 112.465 7.27033 114.65C9.4553 116.855 12.375 118.054 15.4881 118.054C18.6012 118.054 21.521 116.855 23.7059 114.65C25.9102 112.446 27.1091 109.526 27.1091 106.432C27.1091 103.338 25.9102 100.399 23.7059 98.2137C21.5016 96.0092 18.5819 94.8103 15.4881 94.8103Z" fill="#D2C5ED"/>
<path d="M207.495 65.9205C206.76 65.9205 206.044 65.8045 205.368 65.5531L174.817 54.8403C171.452 53.6607 169.693 49.9867 170.872 46.622C171.781 44.0502 174.217 42.3098 176.944 42.3098C177.678 42.3098 178.394 42.4258 179.09 42.6772L209.641 53.39C212.986 54.5696 214.765 58.2437 213.585 61.6083C212.677 64.1802 210.24 65.9205 207.514 65.9205H207.495ZM176.944 46.1773C175.861 46.1773 174.875 46.8734 174.507 47.8983C174.043 49.2325 174.739 50.7022 176.093 51.1856L206.644 61.8984C207.978 62.3625 209.467 61.6277 209.931 60.3127C210.395 58.9785 209.699 57.5088 208.345 57.0254L177.794 46.3126C177.524 46.2159 177.234 46.1579 176.944 46.1579V46.1773Z" fill="#D2C5ED"/>
<path d="M53.4447 134.452C52.8646 134.452 52.2652 134.355 51.7045 134.162C48.8041 133.195 47.2185 130.062 48.1853 127.161L54.0635 109.352C54.8176 107.07 56.9252 105.542 59.3228 105.542C59.9223 105.542 60.5023 105.639 61.0631 105.833C63.9635 106.799 65.549 109.932 64.5822 112.833L58.7041 130.642C57.95 132.924 55.8424 134.452 53.4447 134.452ZM59.3228 109.41C58.6074 109.41 57.9693 109.874 57.7373 110.57L51.8592 128.38C51.5691 129.25 52.0525 130.217 52.9226 130.507C53.7928 130.797 54.7595 130.294 55.0303 129.443L60.9084 111.634C61.1984 110.764 60.715 109.816 59.8449 109.526C59.6709 109.468 59.4969 109.449 59.3228 109.449V109.41Z" fill="#D2C5ED"/>
<path d="M252.663 207.082C251.948 207.082 251.233 206.966 250.556 206.734C247.172 205.574 245.354 201.88 246.515 198.496L252.006 182.466C252.895 179.836 255.37 178.076 258.135 178.076C258.851 178.076 259.566 178.192 260.243 178.424C263.627 179.584 265.444 183.278 264.284 186.662L258.793 202.692C257.903 205.322 255.428 207.082 252.663 207.082ZM258.155 181.963C257.033 181.963 256.047 182.678 255.68 183.742L250.188 199.773C249.724 201.145 250.459 202.634 251.813 203.098C253.166 203.563 254.674 202.808 255.138 201.474L260.63 185.444C261.094 184.071 260.359 182.582 259.006 182.118C258.735 182.021 258.445 181.982 258.155 181.982V181.963Z" fill="#D2C5ED"/>
<g opacity="0.7">
<path d="M142.68 181.963C142.139 181.963 141.617 181.731 141.23 181.306C140.573 180.551 140.592 179.43 141.269 178.695L164.588 153.982L136.628 173.532C135.816 174.112 134.694 173.957 134.037 173.184C133.399 172.41 133.438 171.289 134.134 170.573L154.185 150.366L129.184 168.64C128.391 169.22 127.289 169.123 126.612 168.388C125.955 167.653 125.935 166.551 126.573 165.816L145.909 143.695L127.463 158.971C126.689 159.609 125.529 159.551 124.833 158.816C124.137 158.082 124.118 156.921 124.814 156.167L137.247 142.592L134.617 144.681C133.786 145.338 132.568 145.203 131.891 144.372C131.214 143.54 131.369 142.322 132.2 141.645L153.663 124.686C154.456 124.067 155.597 124.145 156.273 124.88C156.95 125.614 156.97 126.755 156.273 127.509L146.567 138.106L161.92 125.402C162.693 124.764 163.834 124.822 164.53 125.537C165.226 126.253 165.265 127.393 164.607 128.167L140.94 155.239L171.607 132.827C172.419 132.228 173.56 132.363 174.217 133.137C174.875 133.91 174.836 135.051 174.121 135.766L152.058 158.004L177.814 139.982C178.626 139.402 179.747 139.557 180.385 140.311C181.023 141.065 181.004 142.186 180.327 142.902L158.381 166.165L176.654 152.861C177.427 152.3 178.49 152.377 179.167 153.054C179.844 153.731 179.921 154.794 179.341 155.568L172.632 164.598L181.72 157.308C182.493 156.689 183.595 156.747 184.291 157.443C184.987 158.14 185.045 159.242 184.446 160.015L169.557 178.714C168.9 179.546 167.682 179.681 166.831 179.024C165.999 178.366 165.864 177.148 166.522 176.297L170.601 171.173L163.273 177.051C162.519 177.67 161.417 177.612 160.721 176.935C160.025 176.259 159.928 175.176 160.508 174.383L168.648 163.438L143.802 181.538C143.454 181.789 143.067 181.905 142.661 181.905L142.68 181.963Z" fill="#D2C5ED"/>
</g>
</g>
<defs>
<clipPath id="clip0_7564_10451">
<rect width="311" height="311" fill="white"/>
</clipPath>
</defs>
</svg>
