<svg width="161" height="134" viewBox="0 0 161 134" fill="none" xmlns="http://www.w3.org/2000/svg">
<g clip-path="url(#clip0_7564_10415)">
<path d="M80.9601 106.91C51.5501 106.91 27.6201 82.98 27.6201 53.57C27.6201 24.16 51.5501 0.22998 80.9601 0.22998C110.37 0.22998 134.3 24.16 134.3 53.57C134.3 82.98 110.37 106.91 80.9601 106.91ZM80.9601 2.22998C52.6501 2.22998 29.6201 25.26 29.6201 53.57C29.6201 81.88 52.6501 104.91 80.9601 104.91C109.27 104.91 132.3 81.88 132.3 53.57C132.3 25.26 109.27 2.22998 80.9601 2.22998Z" fill="#D2C5ED"/>
<path d="M80.96 96.7399C71.53 96.7399 62.57 93.7499 55.05 88.0999C54.61 87.7699 54.52 87.1399 54.85 86.6999C55.18 86.2599 55.81 86.1699 56.25 86.4999C63.42 91.8899 71.97 94.7399 80.96 94.7399C103.66 94.7399 122.13 76.2699 122.13 53.5699C122.13 30.8699 103.66 12.3999 80.96 12.3999C58.26 12.3999 39.79 30.8699 39.79 53.5699C39.79 60.2299 41.42 66.8499 44.49 72.6999C44.75 73.1899 44.56 73.7899 44.07 74.0499C43.58 74.3099 42.98 74.1199 42.72 73.6299C39.49 67.4899 37.79 60.5499 37.79 53.5699C37.79 29.7699 57.16 10.3999 80.96 10.3999C104.76 10.3999 124.13 29.7699 124.13 53.5699C124.13 77.3699 104.76 96.7399 80.96 96.7399Z" fill="#D2C5ED"/>
<path d="M80.96 70.8001C71.46 70.8001 63.73 63.0701 63.73 53.5701C63.73 44.0701 71.46 36.3401 80.96 36.3401C83.87 36.3401 86.74 37.0801 89.27 38.4701C89.75 38.7401 89.93 39.3401 89.66 39.8301C89.39 40.3101 88.79 40.4901 88.3 40.2201C86.07 38.9901 83.53 38.3401 80.96 38.3401C72.56 38.3401 65.73 45.1701 65.73 53.5701C65.73 61.9701 72.56 68.8001 80.96 68.8001C89.36 68.8001 96.19 61.9701 96.19 53.5701C96.19 50.2501 95.14 47.0901 93.15 44.4401C92.82 44.0001 92.91 43.3701 93.35 43.0401C93.79 42.7101 94.42 42.8001 94.75 43.2401C97 46.2401 98.19 49.8101 98.19 53.5701C98.19 63.0701 90.46 70.8001 80.96 70.8001Z" fill="#D2C5ED"/>
<path d="M75.4701 39.29C75.0901 39.29 74.7301 39.08 74.5601 38.71L49.9001 -14.57C49.6701 -15.07 49.8901 -15.67 50.3901 -15.9C50.8901 -16.13 51.4901 -15.91 51.7201 -15.41L76.3901 37.86C76.6201 38.36 76.4001 38.96 75.9001 39.19C75.7601 39.25 75.6201 39.28 75.4801 39.28L75.4701 39.29Z" fill="#D2C5ED"/>
<path d="M71.9101 41.0901C71.5401 41.0901 71.1901 40.8801 71.0101 40.5301L45.7101 -10.9899C45.4701 -11.4899 45.6701 -12.0799 46.1701 -12.3299C46.6701 -12.5699 47.2701 -12.3699 47.5101 -11.8699L72.8101 39.6501C73.0501 40.1501 72.8501 40.7401 72.3501 40.9901C72.2101 41.0601 72.0601 41.0901 71.9101 41.0901Z" fill="#D2C5ED"/>
<path d="M110.03 122.82C109.65 122.82 109.29 122.61 109.12 122.24L84.4501 68.9701C84.2201 68.4701 84.4401 67.8701 84.9401 67.6401C85.4401 67.4101 86.0401 67.6301 86.2701 68.1301L110.94 121.4C111.17 121.9 110.95 122.5 110.45 122.73C110.31 122.79 110.17 122.82 110.03 122.82Z" fill="#D2C5ED"/>
<path d="M114.23 119.27C113.86 119.27 113.51 119.06 113.33 118.71L88.0299 67.19C87.7899 66.69 87.9899 66.1 88.4899 65.85C88.9899 65.61 89.5799 65.81 89.8299 66.31L115.13 117.83C115.37 118.33 115.17 118.92 114.67 119.17C114.53 119.24 114.38 119.27 114.23 119.27Z" fill="#D2C5ED"/>
<path d="M113.67 130.57C109.25 130.57 105.66 126.98 105.66 122.56C105.66 118.14 109.25 114.55 113.67 114.55C118.09 114.55 121.68 118.14 121.68 122.56C121.68 126.98 118.09 130.57 113.67 130.57ZM113.67 116.54C110.36 116.54 107.66 119.24 107.66 122.55C107.66 125.86 110.36 128.56 113.67 128.56C116.98 128.56 119.68 125.86 119.68 122.55C119.68 119.24 116.98 116.54 113.67 116.54Z" fill="#D2C5ED"/>
<path d="M12.02 84.0301C11.64 84.0301 11.28 83.8201 11.11 83.4501C10.88 82.9501 11.1 82.3501 11.6 82.1201L64.87 57.4501C65.37 57.2201 65.97 57.4401 66.2 57.9401C66.43 58.4401 66.21 59.0401 65.71 59.2701L12.44 83.9401C12.3 84.0001 12.16 84.0301 12.02 84.0301Z" fill="#D2C5ED"/>
<path d="M15.5701 88.2299C15.2001 88.2299 14.8501 88.0199 14.6701 87.6699C14.4301 87.1699 14.6301 86.5799 15.1301 86.3299L66.6501 61.0299C67.1501 60.7899 67.7401 60.9899 67.9901 61.4899C68.2301 61.9899 68.0301 62.5799 67.5301 62.8299L16.0101 88.1299C15.8701 88.1999 15.7201 88.2299 15.5701 88.2299Z" fill="#D2C5ED"/>
<path d="M11.28 94.6899C6.86002 94.6899 3.27002 91.0999 3.27002 86.6799C3.27002 82.2599 6.86002 78.6699 11.28 78.6699C15.7 78.6699 19.29 82.2599 19.29 86.6799C19.29 91.0999 15.7 94.6899 11.28 94.6899ZM11.28 80.6599C7.96002 80.6599 5.27002 83.3599 5.27002 86.6699C5.27002 89.9799 7.97002 92.6799 11.28 92.6799C14.59 92.6799 17.29 89.9799 17.29 86.6699C17.29 83.3599 14.59 80.6599 11.28 80.6599Z" fill="#D2C5ED"/>
<path d="M95.5501 49.4701C95.1701 49.4701 94.8101 49.2601 94.6401 48.8901C94.4101 48.3901 94.6301 47.7901 95.1301 47.5601L148.4 22.8901C148.9 22.6601 149.5 22.8801 149.73 23.3801C149.96 23.8801 149.74 24.4801 149.24 24.7101L95.9701 49.3801C95.8301 49.4401 95.6901 49.4701 95.5501 49.4701Z" fill="#D2C5ED"/>
<path d="M93.75 45.9101C93.38 45.9101 93.03 45.7001 92.85 45.3501C92.61 44.8501 92.81 44.2601 93.31 44.0101L144.83 18.7101C145.33 18.4701 145.92 18.6701 146.17 19.1701C146.41 19.6701 146.21 20.2601 145.71 20.5101L94.19 45.8101C94.05 45.8801 93.9 45.9101 93.75 45.9101Z" fill="#D2C5ED"/>
<path d="M149.56 28.1699C145.14 28.1699 141.55 24.5799 141.55 20.1599C141.55 15.7399 145.14 12.1499 149.56 12.1499C153.98 12.1499 157.57 15.7399 157.57 20.1599C157.57 24.5799 153.98 28.1699 149.56 28.1699ZM149.56 14.1499C146.24 14.1499 143.55 16.8499 143.55 20.1599C143.55 23.4699 146.25 26.1699 149.56 26.1699C152.87 26.1699 155.57 23.4699 155.57 20.1599C155.57 16.8499 152.87 14.1499 149.56 14.1499Z" fill="#D2C5ED"/>
<path d="M52.9899 123.73C52.8799 123.73 52.7599 123.71 52.6499 123.67C52.1299 123.48 51.8699 122.91 52.0599 122.39L72.2899 67.28C72.4799 66.76 73.0499 66.5 73.5699 66.69C74.0899 66.88 74.3499 67.45 74.1599 67.97L53.9299 123.08C53.7799 123.48 53.3999 123.74 52.9899 123.74V123.73Z" fill="#D2C5ED"/>
<path d="M58.4699 124.18C58.3599 124.18 58.2499 124.16 58.1499 124.13C57.6299 123.95 57.3499 123.38 57.5299 122.86L76.0699 68.5301C76.2499 68.0101 76.8199 67.7301 77.3399 67.9101C77.8599 68.0901 78.1399 68.6601 77.9599 69.1801L59.4199 123.51C59.2799 123.93 58.8899 124.19 58.4699 124.19V124.18Z" fill="#D2C5ED"/>
<path d="M55.04 133.83C52.9 133.83 50.89 133 49.38 131.48C46.26 128.36 46.26 123.27 49.38 120.15C50.89 118.64 52.91 117.8 55.05 117.8C57.19 117.8 59.2 118.63 60.72 120.15C63.84 123.27 63.84 128.36 60.72 131.48C59.21 132.99 57.19 133.83 55.05 133.83H55.04ZM55.04 119.81C53.43 119.81 51.92 120.43 50.79 121.57C48.45 123.91 48.45 127.73 50.79 130.07C51.93 131.21 53.44 131.83 55.04 131.83C56.64 131.83 58.16 131.2 59.29 130.07C61.63 127.73 61.63 123.91 59.29 121.57C58.15 120.43 56.64 119.81 55.04 119.81Z" fill="#D2C5ED"/>
<path d="M87.62 40.22C87.51 40.22 87.39 40.2 87.28 40.16C86.76 39.97 86.5 39.4 86.69 38.88L106.92 -16.23C107.11 -16.75 107.68 -17.01 108.2 -16.82C108.72 -16.63 108.98 -16.06 108.79 -15.54L88.56 39.57C88.41 39.97 88.03 40.23 87.62 40.23V40.22Z" fill="#D2C5ED"/>
<path d="M83.8301 38.9801C83.7201 38.9801 83.6101 38.9601 83.5101 38.9301C82.9901 38.7501 82.7101 38.1801 82.8901 37.6601L101.43 -16.6699C101.61 -17.1899 102.18 -17.4699 102.7 -17.2899C103.22 -17.1099 103.5 -16.5399 103.32 -16.0199L84.78 38.3101C84.64 38.7301 84.2501 38.9901 83.8301 38.9901V38.9801Z" fill="#D2C5ED"/>
<path d="M149.73 81.85C149.62 81.85 149.5 81.83 149.39 81.79L94.28 61.56C93.76 61.37 93.5 60.8 93.69 60.28C93.88 59.76 94.45 59.5 94.97 59.69L150.08 79.92C150.6 80.11 150.86 80.68 150.67 81.2C150.52 81.6 150.14 81.86 149.73 81.86V81.85Z" fill="#D2C5ED"/>
<path d="M150.18 76.3701C150.07 76.3701 149.96 76.3501 149.86 76.3201L95.5301 57.78C95.0101 57.6 94.7301 57.0301 94.9101 56.5101C95.0901 55.9901 95.6601 55.7101 96.1801 55.8901L150.51 74.4301C151.03 74.6101 151.31 75.18 151.13 75.7C150.99 76.12 150.6 76.38 150.18 76.38V76.3701Z" fill="#D2C5ED"/>
<path d="M152.82 86.7998C150.68 86.7998 148.67 85.9698 147.16 84.4498C145.65 82.9398 144.81 80.9198 144.81 78.7798C144.81 76.6398 145.64 74.6298 147.16 73.1098C148.67 71.5998 150.69 70.7598 152.82 70.7598C154.95 70.7598 156.97 71.5898 158.48 73.1098C159.99 74.6198 160.83 76.6398 160.83 78.7798C160.83 80.9198 160 82.9298 158.48 84.4398C156.97 85.9498 154.95 86.7898 152.82 86.7898V86.7998ZM152.82 72.7798C151.21 72.7798 149.7 73.3998 148.57 74.5398C147.43 75.6798 146.81 77.1898 146.81 78.7898C146.81 80.3898 147.43 81.9098 148.57 83.0398C149.71 84.1698 151.21 84.7998 152.82 84.7998C154.43 84.7998 155.94 84.1698 157.07 83.0398C158.21 81.8998 158.83 80.3898 158.83 78.7898C158.83 77.1898 158.2 75.6698 157.07 74.5398C155.93 73.3998 154.42 72.7798 152.82 72.7798Z" fill="#D2C5ED"/>
<path d="M66.22 47.2099C66.11 47.2099 65.99 47.1899 65.88 47.1499L10.77 26.9299C10.25 26.7399 9.99001 26.1699 10.18 25.6499C10.37 25.1299 10.94 24.8699 11.46 25.0599L66.57 45.2899C67.09 45.4799 67.35 46.0499 67.16 46.5699C67.01 46.9699 66.63 47.2299 66.22 47.2299V47.2099Z" fill="#D2C5ED"/>
<path d="M64.9801 51.0099C64.8701 51.0099 64.7601 50.9899 64.6601 50.9599L10.3301 32.4199C9.81012 32.2399 9.53012 31.6699 9.71012 31.1499C9.89012 30.6299 10.4601 30.3499 10.9801 30.5299L65.3101 49.0699C65.8301 49.2499 66.1101 49.8199 65.9301 50.3399C65.7901 50.7599 65.4001 51.0199 64.9801 51.0199V51.0099Z" fill="#D2C5ED"/>
<path d="M8.01 36.06C5.87 36.06 3.86 35.23 2.35 33.71C0.84 32.2 0 30.18 0 28.04C0 25.9 0.83 23.89 2.35 22.38C3.86 20.87 5.88 20.03 8.01 20.03C10.14 20.03 12.16 20.86 13.68 22.38C15.19 23.89 16.03 25.91 16.03 28.05C16.03 30.19 15.2 32.2 13.68 33.71C12.17 35.22 10.15 36.06 8.01 36.06ZM8.01 22.03C6.4 22.03 4.89 22.65 3.76 23.79C2.62 24.93 2 26.44 2 28.04C2 29.64 2.63 31.16 3.76 32.29C4.89 33.43 6.4 34.05 8.01 34.05C9.62 34.05 11.13 33.43 12.26 32.29C13.4 31.15 14.02 29.64 14.02 28.04C14.02 26.44 13.4 24.92 12.26 23.79C11.12 22.65 9.61 22.03 8.01 22.03Z" fill="#D2C5ED"/>
<path d="M107.31 7.08988C106.93 7.08988 106.56 7.02989 106.21 6.89989L90.41 1.35988C88.67 0.749884 87.76 -1.15012 88.37 -2.89012C88.84 -4.22012 90.1 -5.12012 91.51 -5.12012C91.89 -5.12012 92.26 -5.06012 92.62 -4.93012L108.42 0.609884C110.15 1.21988 111.07 3.11988 110.46 4.85988C109.99 6.18988 108.73 7.08988 107.32 7.08988H107.31ZM91.51 -3.12012C90.95 -3.12012 90.44 -2.76012 90.25 -2.23012C90.01 -1.54012 90.37 -0.780117 91.07 -0.530117L106.87 5.00988C107.56 5.24988 108.33 4.86988 108.57 4.18988C108.81 3.49988 108.45 2.73988 107.75 2.48988L91.95 -3.05012C91.81 -3.10012 91.66 -3.13012 91.51 -3.13012V-3.12012Z" fill="#D2C5ED"/>
<path d="M65.77 109.04C65.45 109.04 65.12 108.99 64.81 108.89L57.71 106.63C56.05 106.1 55.12 104.32 55.65 102.65C56.07 101.33 57.28 100.44 58.67 100.44C58.99 100.44 59.32 100.49 59.63 100.59L66.73 102.85C68.39 103.38 69.32 105.17 68.79 106.83C68.37 108.15 67.16 109.04 65.77 109.04ZM58.68 102.45C58.17 102.45 57.72 102.78 57.57 103.26C57.37 103.87 57.72 104.53 58.33 104.72L65.43 106.98C66.04 107.17 66.7 106.82 66.89 106.22C67.09 105.61 66.75 104.95 66.13 104.75L59.03 102.49C58.92 102.45 58.8 102.44 58.68 102.44V102.45Z" fill="#D2C5ED"/>
<path d="M27.6399 42.5301C27.3399 42.5301 27.0299 42.4801 26.7399 42.3801C25.2399 41.8801 24.4199 40.2601 24.9199 38.7601L27.9599 29.5501C28.3499 28.3701 29.4399 27.5801 30.6799 27.5801C30.9899 27.5801 31.2899 27.6301 31.5799 27.7301C33.0799 28.2301 33.8999 29.8501 33.3999 31.3501L30.3599 40.5601C29.9699 41.7401 28.8799 42.5301 27.6399 42.5301ZM30.6799 29.5801C30.3099 29.5801 29.9799 29.8201 29.8599 30.1801L26.8199 39.3901C26.6699 39.8401 26.9199 40.3401 27.3699 40.4901C27.8199 40.6401 28.3199 40.3801 28.4599 39.9401L31.4999 30.7301C31.6499 30.2801 31.3999 29.7901 30.9499 29.6401C30.8599 29.6101 30.7699 29.6001 30.6799 29.6001V29.5801Z" fill="#D2C5ED"/>
<path d="M130.67 80.0898C130.3 80.0898 129.93 80.0299 129.58 79.9099C127.83 79.3099 126.89 77.3998 127.49 75.6498L130.33 67.3598C130.79 65.9998 132.07 65.0898 133.5 65.0898C133.87 65.0898 134.24 65.1498 134.59 65.2698C136.34 65.8698 137.28 67.7798 136.68 69.5298L133.84 77.8198C133.38 79.1798 132.1 80.0898 130.67 80.0898ZM133.51 67.0998C132.93 67.0998 132.42 67.4698 132.23 68.0198L129.39 76.3098C129.15 77.0198 129.53 77.7898 130.23 78.0298C130.93 78.2698 131.71 77.8798 131.95 77.1898L134.79 68.8998C135.03 68.1898 134.65 67.4198 133.95 67.1798C133.81 67.1298 133.66 67.1098 133.51 67.1098V67.0998Z" fill="#D2C5ED"/>
<g opacity="0.7">
<path d="M73.79 67.1C73.51 67.1 73.24 66.98 73.04 66.76C72.7 66.37 72.71 65.79 73.06 65.41L85.12 52.63L70.66 62.74C70.24 63.04 69.66 62.96 69.32 62.56C68.99 62.16 69.01 61.58 69.37 61.21L79.74 50.76L66.81 60.21C66.4 60.51 65.83 60.46 65.48 60.08C65.14 59.7 65.13 59.13 65.46 58.75L75.46 47.31L65.92 55.21C65.52 55.54 64.92 55.51 64.56 55.13C64.2 54.75 64.19 54.15 64.55 53.76L70.98 46.74L69.62 47.82C69.19 48.16 68.56 48.09 68.21 47.66C67.86 47.23 67.94 46.6 68.37 46.25L79.47 37.48C79.88 37.16 80.47 37.2 80.82 37.58C81.17 37.96 81.18 38.55 80.82 38.94L75.8 44.42L83.74 37.85C84.14 37.52 84.73 37.55 85.09 37.92C85.45 38.29 85.47 38.88 85.13 39.28L72.89 53.28L88.75 41.69C89.17 41.38 89.76 41.45 90.1 41.85C90.44 42.25 90.42 42.84 90.05 43.21L78.64 54.71L91.96 45.39C92.38 45.09 92.96 45.17 93.29 45.56C93.62 45.95 93.61 46.53 93.26 46.9L81.91 58.93L91.36 52.05C91.76 51.76 92.31 51.8 92.66 52.15C93.01 52.5 93.05 53.05 92.75 53.45L89.28 58.12L93.98 54.35C94.38 54.03 94.95 54.06 95.31 54.42C95.67 54.78 95.7 55.35 95.39 55.75L87.69 65.42C87.35 65.85 86.72 65.92 86.28 65.58C85.85 65.24 85.78 64.61 86.12 64.17L88.23 61.52L84.44 64.56C84.05 64.88 83.48 64.85 83.12 64.5C82.76 64.15 82.71 63.59 83.01 63.18L87.22 57.52L74.37 66.88C74.19 67.01 73.99 67.07 73.78 67.07L73.79 67.1Z" fill="#D2C5ED"/>
</g>
</g>
<defs>
<clipPath id="clip0_7564_10415">
<rect width="160.84" height="160.83" fill="white" transform="translate(0 -27)"/>
</clipPath>
</defs>
</svg>
